<svg xmlns:xlink="http://www.w3.org/1999/xlink" xmlns="http://www.w3.org/2000/svg" viewBox="0 0 250 250">
    <defs>
        <style>
            .cls-1,.cls-11,.cls-8{fill:none;}.cls-2{fill:#1e1c3b00;}.cls-3{clip-path:url(#clip-path);}.cls-4{fill:#090817;}.cls-5{fill:#2f3f6b;}.cls-6,.cls-9{fill:#fff;}.cls-7{fill:#c7d8ff;}.cls-8{stroke:#516cb8;stroke-width:2px;}.cls-11,.cls-8{stroke-linecap:round;stroke-linejoin:round;}.cls-11,.cls-9{stroke:#ab1127;stroke-width:3px;}.cls-9{stroke-miterlimit:10;}.cls-10{fill:#e63946;}
        </style>
        <clipPath id="clip-path">
            <circle class="cls-1" cx="125" cy="125" r="117"/>
        </clipPath>
    </defs>
    <g id="_4-ecogeste-lumiere" data-name="4-ecogeste-lumiere">
        <g id="_4-ecogeste-lumiere-2" data-name="4-ecogeste-lumiere">
            <circle class="cls-2" cx="125" cy="125" r="115"/>
            <g class="cls-3">
                <ellipse class="cls-4" cx="180.74" cy="132.02" rx="42.75" ry="2.6"/>
                <path class="cls-5"
                      d="M168.41,130.48a16.22,16.22,0,0,0,24.67,0q-6.15,0-12.34,0C176.62,130.43,172.5,130.45,168.41,130.48Z"/>
                <path class="cls-6"
                      d="M193.78,110.7H167.7C150.47,113.58,138,122,138,132c13.16-1,27.61-1.55,42.75-1.55s29.59.55,42.76,1.55C223.49,122,211,113.58,193.78,110.7Z"/>
                <path class="cls-7" d="M180.74,94.15a2.9,2.9,0,0,0-2.91,2.9h5.82A2.9,2.9,0,0,0,180.74,94.15Z"/>
                <path class="cls-6" d="M171.55,15.39v3.05h0a9.2,9.2,0,1,0,18.39,0V15.39Z"/>
                <path class="cls-7"
                      d="M177.83,28.11a1.89,1.89,0,0,0,1.33,1.79l1.08.4,1.18.44.51.2a.43.43,0,0,1,.29.41h0a.44.44,0,0,1-.26.41l-1.71.64-1.11.41a1.91,1.91,0,0,0-.93.66,1.81,1.81,0,0,0-.38,1.13,1.89,1.89,0,0,0,1.33,1.79l1.71.63,1.06.4a.44.44,0,0,1,.29.41h0v0a.44.44,0,0,1-.26.4l-2.82,1a2,2,0,0,0-.93.65,1.85,1.85,0,0,0-.38,1.13,1.9,1.9,0,0,0,1.33,1.8l1.07.39,1.19.45.51.19a.46.46,0,0,1,.29.37v.08h0a.44.44,0,0,1-.26.37l-1.72.64-1.1.41a1.91,1.91,0,0,0-.93.66,1.81,1.81,0,0,0-.38,1.13,1.89,1.89,0,0,0,1.33,1.79l1.71.63,1.06.4a.44.44,0,0,1,.29.41h0v0a.44.44,0,0,1-.26.4l-2.82,1a1.91,1.91,0,0,0-.93.66,1.81,1.81,0,0,0-.38,1.13,1.89,1.89,0,0,0,1.33,1.79l1.08.4,1.18.44.51.19a.43.43,0,0,1,.29.42h0a.44.44,0,0,1-.26.4l-1.71.64-1.11.41a2,2,0,0,0-.93.66,1.85,1.85,0,0,0-.38,1.13,1.88,1.88,0,0,0,1.33,1.79l1.71.64,1.06.4a.43.43,0,0,1,.29.41h0v0a.43.43,0,0,1-.26.4l-2.82,1a2,2,0,0,0-.93.66,1.85,1.85,0,0,0-.38,1.13,1.89,1.89,0,0,0,1.33,1.79l1.08.4,1.18.44.51.19a.45.45,0,0,1,.29.39h0v0h0a.44.44,0,0,1-.26.4l-1.72.64-1.1.41a2,2,0,0,0-.93.66,1.81,1.81,0,0,0-.38,1.13,1.89,1.89,0,0,0,1.33,1.79l1.71.63,1.06.4a.44.44,0,0,1,.29.41h0v0a.44.44,0,0,1-.26.4l-2.82,1a1.91,1.91,0,0,0-.93.66,1.81,1.81,0,0,0-.38,1.13,1.89,1.89,0,0,0,1.33,1.79l1.08.4,1.18.44.51.19a.44.44,0,0,1,.29.42h0a.45.45,0,0,1-.26.41l-1.71.63-1.11.41a2,2,0,0,0-.93.66,1.85,1.85,0,0,0-.38,1.13,1.88,1.88,0,0,0,1.33,1.79l1.71.64,1.06.4a.43.43,0,0,1,.29.41h0v0a.43.43,0,0,1-.26.4l-2.82,1a2,2,0,0,0-.93.66,1.85,1.85,0,0,0-.38,1.13,1.87,1.87,0,0,0,.57,1.34,3.86,3.86,0,0,1,1.71-.73l-.59-.21a.44.44,0,0,1-.26-.4.44.44,0,0,1,.29-.41l.52-.2,2.31-.86.11,0h0l.23-.12a1.81,1.81,0,0,0,.91-1.6v0a1.89,1.89,0,0,0-.34-1.07,1.68,1.68,0,0,0-.63-.57c-.75-.35-2.94-1.12-3.16-1.2a.43.43,0,0,1-.26-.4.44.44,0,0,1,.29-.41l.52-.2,2.31-.86.11,0h0l.23-.11a1.84,1.84,0,0,0,.91-1.61h0v-.09a1.9,1.9,0,0,0-.34-1,1.65,1.65,0,0,0-.63-.56c-.75-.35-2.94-1.13-3.16-1.2a.44.44,0,0,1-.26-.4.46.46,0,0,1,.29-.42l.52-.19,2.31-.87.11,0h0l.23-.11a1.83,1.83,0,0,0,.91-1.61h0a1.84,1.84,0,0,0-.34-1.07,1.6,1.6,0,0,0-.63-.57c-.75-.35-2.94-1.12-3.16-1.2a.44.44,0,0,1-.26-.4.46.46,0,0,1,.29-.42l.52-.19,2.31-.86.11,0h0l.23-.12a1.82,1.82,0,0,0,.91-1.52v-.08h0v-.1s0-.06,0-.09a1.76,1.76,0,0,0-.33-.88,1.6,1.6,0,0,0-.63-.57c-.75-.35-2.94-1.12-3.16-1.2a.44.44,0,0,1-.26-.4.47.47,0,0,1,.29-.42l.52-.19,2.31-.86.11,0h0l.23-.12a1.82,1.82,0,0,0,.91-1.6v0a1.89,1.89,0,0,0-.34-1.07,1.6,1.6,0,0,0-.63-.57c-.75-.35-2.94-1.12-3.16-1.2a.44.44,0,0,1-.26-.4.44.44,0,0,1,.29-.41l.52-.2,2.31-.86.11,0h0l.23-.12a1.81,1.81,0,0,0,.91-1.6h0v-.09a1.9,1.9,0,0,0-.34-1,1.57,1.57,0,0,0-.63-.56c-.75-.36-2.94-1.13-3.16-1.2a.44.44,0,0,1-.26-.4.45.45,0,0,1,.29-.42l.52-.19,2.31-.87.11,0h0l.23-.11a1.83,1.83,0,0,0,.91-1.61h0a1.84,1.84,0,0,0-.34-1.07,1.6,1.6,0,0,0-.63-.57c-.75-.35-2.94-1.12-3.16-1.2a.44.44,0,0,1-.26-.4.46.46,0,0,1,.29-.42l.52-.19,2.31-.87.11,0h0l.23-.11a1.81,1.81,0,0,0,.91-1.51v-.1h0v-.09s0,0,0-.07h0a1.83,1.83,0,0,0-.33-.89,1.57,1.57,0,0,0-.63-.56c-.75-.36-2.94-1.13-3.16-1.2a.45.45,0,0,1-.26-.41.44.44,0,0,1,.29-.41l.52-.19,2.31-.87.11,0h0l.23-.11a1.83,1.83,0,0,0,.91-1.61h0a1.89,1.89,0,0,0-.34-1.08,1.65,1.65,0,0,0-.63-.56c-.75-.35-2.94-1.13-3.16-1.2a.44.44,0,0,1-.26-.4.46.46,0,0,1,.29-.42l.52-.19,2.31-.87.11,0h0l.23-.11a1.83,1.83,0,0,0,.91-1.61h0v-.08a1.84,1.84,0,0,0-.34-1,1.6,1.6,0,0,0-.63-.57c-.75-.35-2.94-1.12-3.16-1.2a.45.45,0,0,1-.22-.21,9.93,9.93,0,0,1-1.46-.29A.38.38,0,0,0,177.83,28.11Z"/>
                <path class="cls-6"
                      d="M179.36,96h3.11a11.5,11.5,0,0,1,11.5,11.5v4.39a0,0,0,0,1,0,0H167.86a0,0,0,0,1,0,0v-4.39A11.5,11.5,0,0,1,179.36,96Z"/>
            </g>
            <line class="cls-8" x1="88.22" y1="211.89" x2="88.22" y2="60.83"/>
            <line class="cls-8" x1="108.03" y1="209.6" x2="81.8" y2="60.83"/>
            <line class="cls-8" x1="68.41" y1="209.6" x2="94.64" y2="60.83"/>
            <path class="cls-6"
                  d="M130.33,61.27h0a285,285,0,0,1-84.21,0h0A1.91,1.91,0,0,1,44.66,59l8.78-37.76a1.92,1.92,0,0,1,1.87-1.48h65.83A1.9,1.9,0,0,1,123,21.21L131.78,59A1.91,1.91,0,0,1,130.33,61.27Z"/>
            <path class="cls-4"
                  d="M88.22,21.7c14.57,0,27.35-.44,34.53-1.09a1.92,1.92,0,0,0-1.61-.88H55.31a1.92,1.92,0,0,0-1.62.88C60.88,21.26,73.65,21.7,88.22,21.7Z"/>
            <circle class="cls-9" cx="125" cy="125" r="34.94"/>
            <path class="cls-10"
                  d="M142.83,120.76a.65.65,0,0,0-.57-.35l-15,0,3.53-21.57a.61.61,0,0,0-.37-.68.62.62,0,0,0-.75.19L107.24,127a.61.61,0,0,0-.07.66.64.64,0,0,0,.57.36H123.3l-3.81,23.15a.65.65,0,0,0,.38.69.74.74,0,0,0,.25,0,.64.64,0,0,0,.51-.26l22.14-30.27A.65.65,0,0,0,142.83,120.76Z"/>
            <line class="cls-11" x1="102.23" y1="100.88" x2="150.15" y2="148.81"/>
        </g>
    </g>
</svg>
