<svg xmlns="http://www.w3.org/2000/svg" xmlns:xlink="http://www.w3.org/1999/xlink" viewBox="0 0 250 250"><defs><style>.cls-1{fill:#516cb8;}.cls-2{fill:#1e1c3b;}.cls-3{fill:#fff;}.cls-10,.cls-4{fill:#8aa9ff;}.cls-5{clip-path:url(#clip-path);}.cls-6{fill:#2f3f6b;}.cls-7,.cls-8,.cls-9{fill:none;stroke-linecap:round;stroke-linejoin:round;}.cls-7{stroke:#2f3f6b;}.cls-8,.cls-9{stroke:#516cb8;}.cls-8{stroke-width:2px;}.cls-9{stroke-width:3px;}.cls-10{stroke:#fff;stroke-miterlimit:10;stroke-width:4px;}</style><clipPath id="clip-path"><circle class="cls-1" cx="92.32" cy="86.12" r="22.88"/></clipPath></defs><g id="_4-ecogeste-electromenager" data-name="4-ecogeste-electromenager"><g id="_4-ecogeste-electromenager-2" data-name="4-ecogeste-electromenager"><circle class="cls-2" cx="125" cy="125" r="115"/><rect class="cls-3" x="58.21" y="47.39" width="68.23" height="73.14" rx="1.85"/><circle class="cls-4" cx="92.32" cy="86.12" r="24.99"/><circle class="cls-1" cx="92.32" cy="86.12" r="22.88"/><g class="cls-5"><path class="cls-6" d="M77.05,105.8c-.51-5.25,4.18-7.75,8.81-8.47,5-.78,5.2-1.53,8.54-5.28,6.08-6.82,8.22-.13,14.52.37,3.16.25,7.19-1,9.5,1.49,2,2.15,1.58,7,1,9.8-2.53,11.42-17.69,14.1-27.39,14.06C85.73,117.75,72.7,114.64,77.05,105.8Z"/></g><path class="cls-7" d="M76.11,80.18a17.24,17.24,0,0,0,13.49,23"/><path class="cls-7" d="M79.06,86.94a13.27,13.27,0,0,0,7.77,11.27"/><path class="cls-7" d="M83.21,84.33a9.29,9.29,0,0,0,2.18,8"/><rect class="cls-3" x="135.46" y="121.81" width="68.23" height="73.14" rx="1.85"/><line class="cls-8" x1="137.41" y1="136.96" x2="201.27" y2="136.96"/><line class="cls-8" x1="142.16" y1="187.42" x2="196.52" y2="187.42"/><polyline class="cls-8" points="160.3 130.96 160.3 127.53 178.85 127.53 178.85 130.96"/><rect class="cls-3" x="58.26" y="121.81" width="68.23" height="73.14" rx="1.85"/><circle class="cls-1" cx="92.38" cy="165.66" r="18.58"/><line class="cls-8" x1="61.25" y1="133.48" x2="123.05" y2="133.48"/><path class="cls-3" d="M129.05,95.13c-.24-5.89,5.6-8.52,10.91-6.32,4.62,1.91,6.81,3.83,11.8,2.33,3.08-.92,7.15-2.26,10.1-.65,2.46,1.35,3.88,4.19,6.75,5,3.47,1,4.22-1.06,5.94-3.6,1.3-1.92,4.93-2.56,7.67-1,4.15,2.41,3.85,8,3.52,9.62-1.12,5.4-11.32,4.39-16.09,5.69-12.51,3.41-25.05,3-36.41-3.54C131.69,101.79,126.47,96.38,129.05,95.13Z"/><path class="cls-1" d="M173.37,121.3H139.19a10.65,10.65,0,0,1-10.2-7.56L125.14,101a2.3,2.3,0,0,1,2.2-3h57.88a2.3,2.3,0,0,1,2.2,3l-3.85,12.71A10.65,10.65,0,0,1,173.37,121.3Z"/><line class="cls-9" x1="121.43" y1="98.84" x2="191.14" y2="98.84"/><circle class="cls-10" cx="171.58" cy="35.57" r="29.69"/><path class="cls-2" d="M172.8,36.21l20.47,8.94a.41.41,0,0,0,.52-.2,24.22,24.22,0,0,0-1.64-22.63.39.39,0,0,0-.56-.11L172.73,35.54A.39.39,0,0,0,172.8,36.21Z"/></g></g></svg>