<?xml version="1.0" encoding="utf-8"?>
<!-- Generator: Adobe Illustrator 26.5.0, SVG Export Plug-In . SVG Version: 6.00 Build 0)  -->
<svg version="1.1" id="Calque_1" xmlns="http://www.w3.org/2000/svg" xmlns:xlink="http://www.w3.org/1999/xlink" x="0px" y="0px"
	 viewBox="0 0 373.71 373.71" style="enable-background:new 0 0 373.71 373.71;" xml:space="preserve">
<style type="text/css">
	.st0{fill-rule:evenodd;clip-rule:evenodd;fill:#09081700;}
	.st1{fill:#8AA9FF;}
	.st2{fill:#FFFFFF;}
	.st3{fill:#D9E5EE;}
	.st4{fill:#E63946;}
	.st5{clip-path:url(#SVGID_00000088848564066205267490000000827451418938728101_);fill:#FFFFFF;}
	.st6{clip-path:url(#SVGID_00000088848564066205267490000000827451418938728101_);}
	.st7{fill:#516CB8;}
</style>
<g>
	<g>
		<g>
			<g>
				<circle class="st0" cx="186.86" cy="186.86" r="186.86"/>
			</g>
		</g>
		<g>
			<defs>
				<circle id="SVGID_1_" cx="186.86" cy="186.86" r="186.86"/>
			</defs>
			<clipPath id="SVGID_00000118360854619781451600000005192452190018776469_">
				<use xlink:href="#SVGID_1_"  style="overflow:visible;"/>
			</clipPath>
		</g>
		<g>
			<defs>
				<circle id="SVGID_00000181059726256313564180000001551756875743479436_" cx="186.86" cy="186.86" r="186.86"/>
			</defs>
			<clipPath id="SVGID_00000155827472476195264000000008375736188260866467_">
				<use xlink:href="#SVGID_00000181059726256313564180000001551756875743479436_"  style="overflow:visible;"/>
			</clipPath>
		</g>
	</g>
	<path class="st1" d="M221.82,298.3c0,12.45-10.09,22.54-22.54,22.54s-22.54-10.09-22.54-22.54c0-12.45,22.54-46.45,22.54-46.45
		S221.82,285.85,221.82,298.3z"/>
	<g>
		<g>
			<path class="st2" d="M308.33,279.42c-9.78,0-17.7-7.93-17.7-17.7v-97.5c0-9.78,7.93-17.7,17.7-17.7c9.78,0,17.7,7.93,17.7,17.7
				v97.5C326.03,271.5,318.11,279.42,308.33,279.42z"/>
		</g>
		<g>
			<circle class="st2" cx="308.33" cy="261.72" r="34.69"/>
		</g>
		<g>
			<path class="st3" d="M308.33,267.62c-3.26,0-5.9-2.64-5.9-5.9v-94.79c0-3.26,2.64-5.9,5.9-5.9c3.26,0,5.9,2.64,5.9,5.9v94.79
				C314.23,264.98,311.59,267.62,308.33,267.62z"/>
		</g>
		<g>
			<path class="st4" d="M313.95,239.2v-29.28c0-3.11-2.52-5.62-5.62-5.62c-3.11,0-5.62,2.52-5.62,5.62v29.28
				c-10.11,2.52-17.61,11.63-17.61,22.52c0,12.83,10.4,23.23,23.23,23.23c12.83,0,23.23-10.4,23.23-23.23
				C331.56,250.83,324.06,241.72,313.95,239.2z"/>
		</g>
	</g>
	<g>
		<defs>
			<circle id="SVGID_00000047778651620737715430000007517263069405766046_" cx="186.86" cy="186.86" r="186.86"/>
		</defs>
		<clipPath id="SVGID_00000088126348282173678350000005904578482748214947_">
			<use xlink:href="#SVGID_00000047778651620737715430000007517263069405766046_"  style="overflow:visible;"/>
		</clipPath>
		<path style="clip-path:url(#SVGID_00000088126348282173678350000005904578482748214947_);fill:#FFFFFF;" d="M166.54,102.62H-14.54
			v63.23h159.51c11.91,0,21.57,9.19,21.57,20.52v24.93H233v-45.45v0C233,130.93,203.24,102.62,166.54,102.62L166.54,102.62z"/>
		<g style="clip-path:url(#SVGID_00000088126348282173678350000005904578482748214947_);">
			<defs>
				<circle id="SVGID_00000172414502989174761660000018165396437589567651_" cx="186.86" cy="186.86" r="186.86"/>
			</defs>
			<clipPath id="SVGID_00000015345025627103099980000003015027356362744763_">
				<use xlink:href="#SVGID_00000172414502989174761660000018165396437589567651_"  style="overflow:visible;"/>
			</clipPath>
		</g>
		<g style="clip-path:url(#SVGID_00000088126348282173678350000005904578482748214947_);">
			<defs>
				<circle id="SVGID_00000082343926999169560960000012671286207473048503_" cx="186.86" cy="186.86" r="186.86"/>
			</defs>
			<clipPath id="SVGID_00000165943736367611741940000001530707759980513152_">
				<use xlink:href="#SVGID_00000082343926999169560960000012671286207473048503_"  style="overflow:visible;"/>
			</clipPath>
		</g>
	</g>
	<path class="st7" d="M233.3,229.36h-72.06c-5.86,0-10.61-4.75-10.61-10.61v-4.34c0-5.86,4.75-10.61,10.61-10.61h72.06
		c5.86,0,10.61,4.75,10.61,10.61v4.34C243.92,224.61,239.17,229.36,233.3,229.36z"/>
</g>
</svg>
