<svg xmlns="http://www.w3.org/2000/svg" viewBox="0 0 250 250">
    <defs>
        <style>
            .cls-1{fill:#1e1c3b00;}.cls-2,.cls-5{fill:#fff;}.cls-3,.cls-4{fill:none;}.cls-3{stroke:#fff;}.cls-3,.cls-4,.cls-5,.cls-6{stroke-linecap:round;stroke-linejoin:round;stroke-width:3px;}.cls-4,.cls-6{stroke:#516cb8;}.cls-5{stroke:#e63946;}.cls-6,.cls-7{fill:#516cb8;}
        </style>
    </defs>
    <g id="_4-ecogeste-cuisine" data-name="4-ecogeste-cuisine">
        <g id="_4-ecogeste-cuisine-2" data-name="4-ecogeste-cuisine">
            <circle class="cls-1" cx="125" cy="125" r="115"/>
            <path class="cls-2"
                  d="M65.37,130.26H184.63a0,0,0,0,1,0,0v47.65a12.46,12.46,0,0,1-12.46,12.46H77.83a12.46,12.46,0,0,1-12.46-12.46V130.26A0,0,0,0,1,65.37,130.26Z"/>
            <line class="cls-3" x1="40.4" y1="136.99" x2="73.1" y2="149.01"/>
            <line class="cls-3" x1="209.6" y1="136.99" x2="176.9" y2="149.01"/>
            <path class="cls-4"
                  d="M22.53,210.56H59.14a16.63,16.63,0,0,0,11.77-4.87h0a16.63,16.63,0,0,1,11.76-4.87h84.66a16.63,16.63,0,0,1,11.76,4.87h0a16.63,16.63,0,0,0,11.77,4.87h36.61"/>
            <line class="cls-4" x1="125" y1="210.56" x2="125" y2="195.66"/>
            <line class="cls-5" x1="80.28" y1="210.56" x2="169.72" y2="210.56"/>
            <path class="cls-6" d="M64.82,129.88a105.62,105.62,0,0,1,120.36-.77l-120.36.77"/>
            <line class="cls-4" x1="56.75" y1="129.89" x2="193.25" y2="129.89"/>
            <path class="cls-7" d="M125,127.94l12.6-21.82a4.36,4.36,0,0,0-3.77-6.54H116.17a4.36,4.36,0,0,0-3.77,6.54Z"/>
            <circle class="cls-2" cx="90.79" cy="99.49" r="3.98"/>
            <path class="cls-2"
                  d="M99.61,44V44a26.51,26.51,0,1,0-34,25.42,17.09,17.09,0,1,0,28.77,8.3,16.9,16.9,0,0,0,3.72.42A17.07,17.07,0,0,0,99.61,44Z"/>
        </g>
    </g>
</svg>
