<?xml version="1.0" encoding="utf-8"?>
<!-- Generator: Adobe Illustrator 26.5.0, SVG Export Plug-In . SVG Version: 6.00 Build 0)  -->
<svg version="1.1" id="Calque_1" xmlns="http://www.w3.org/2000/svg" xmlns:xlink="http://www.w3.org/1999/xlink" x="0px" y="0px"
	 viewBox="0 0 375.62 375.62" style="enable-background:new 0 0 375.62 375.62;" xml:space="preserve">
<style type="text/css">
	.st0{fill-rule:evenodd;clip-rule:evenodd;fill:#090817;}
	.st1{fill:#516CB8;}
	.st2{fill:#FFFFFF;}
	.st3{fill:#2F3F6B;}
	.st4{fill:none;stroke:#516CB8;stroke-width:4.805;stroke-linecap:round;stroke-linejoin:round;stroke-miterlimit:10;}
	.st5{fill:#090817;}
	.st6{fill:#AB1127;}
	.st7{fill:#E63946;}
</style>
<g>
	<circle class="st0" cx="187.81" cy="187.81" r="185.82"/>
</g>
<g>
	<path class="st1" d="M290.51,153.44h-53.72l4.04-10.86c2.26-6.08,7.49-10.03,13.29-10.03h19.07c5.8,0,11.03,3.95,13.29,10.03
		L290.51,153.44z"/>
	<polygon class="st2" points="282.75,197.83 244.56,197.83 236.79,153.44 290.51,153.44 	"/>
	<path class="st3" d="M282.85,206.07H244.8c-1.95,0-3.53-1.58-3.53-3.53v-1.18c0-1.95,1.58-3.53,3.53-3.53h38.05
		c1.95,0,3.53,1.58,3.53,3.53v1.18C286.38,204.49,284.8,206.07,282.85,206.07z"/>
	<path class="st3" d="M290.17,157.57h-52.69c-1.95,0-3.53-1.58-3.53-3.53v-1.18c0-1.95,1.58-3.53,3.53-3.53h52.69
		c1.95,0,3.53,1.58,3.53,3.53v1.18C293.7,155.98,292.12,157.57,290.17,157.57z"/>
	<path class="st3" d="M264.59,320.57h-1.01c-1.67,0-3.03-1.36-3.03-3.03V206.07h7.06v111.47
		C267.61,319.21,266.26,320.57,264.59,320.57z"/>
</g>
<g>
	<g>
		<path class="st4" d="M198.43,67.43L198.43,67.43c0-18.87-15.3-34.17-34.17-34.17l0,0c-18.87,0-34.17,15.3-34.17,34.17v250.59"/>
	</g>
	<g>
		<g>
			<ellipse class="st5" cx="198.43" cy="107" rx="51.45" ry="3.13"/>
		</g>
		<g>
			<path class="st3" d="M183.59,105.15c3.58,4.19,8.9,6.85,14.84,6.85c5.94,0,11.26-2.66,14.84-6.85
				c-4.93-0.04-9.88-0.06-14.84-0.06C193.47,105.09,188.52,105.11,183.59,105.15z"/>
		</g>
		<g>
			<path class="st2" d="M214.12,81.34h-31.38c-20.74,3.47-35.75,13.65-35.76,25.66c15.85-1.2,33.22-1.87,51.45-1.87
				s35.61,0.66,51.45,1.87C249.87,94.99,234.86,84.82,214.12,81.34z"/>
		</g>
		<g>
			<path class="st2" d="M214.36,82.81h-31.42V69.77c0-3.36,2.73-6.09,6.09-6.09h19.25c3.36,0,6.09,2.73,6.09,6.09V82.81z"/>
		</g>
	</g>
</g>
<g>
	<g>
		<g>
			<circle class="st2" cx="156.99" cy="221.89" r="46.96"/>
			<path class="st6" d="M156.99,270.96c-27.05,0-49.06-22.01-49.06-49.06s22.01-49.06,49.06-49.06c27.05,0,49.06,22.01,49.06,49.06
				S184.04,270.96,156.99,270.96z M156.99,177.04c-24.73,0-44.86,20.12-44.86,44.86s20.12,44.86,44.86,44.86
				s44.85-20.12,44.85-44.86S181.72,177.04,156.99,177.04z"/>
		</g>
		<g>
			<path class="st7" d="M180.95,216.19c-0.14-0.28-0.44-0.47-0.76-0.47l-20.11-0.07l4.75-29c0.06-0.38-0.14-0.76-0.5-0.92
				c-0.36-0.15-0.77-0.05-1.01,0.25l-30.2,38.63c-0.2,0.26-0.24,0.6-0.09,0.9c0.14,0.29,0.44,0.48,0.76,0.48h20.92l-5.12,31.12
				c-0.06,0.39,0.15,0.77,0.51,0.92c0.11,0.04,0.22,0.07,0.33,0.07c0.26,0,0.52-0.12,0.69-0.35l29.76-40.68
				C181.06,216.82,181.09,216.48,180.95,216.19z"/>
		</g>
		<g>
			<path class="st6" d="M190.8,256c-0.54,0-1.08-0.21-1.49-0.62l-64.42-64.42c-0.82-0.82-0.82-2.15,0-2.98
				c0.82-0.82,2.15-0.82,2.98,0l64.42,64.42c0.82,0.82,0.82,2.15,0,2.98C191.87,255.79,191.34,256,190.8,256z"/>
		</g>
	</g>
</g>
</svg>
