<?xml version="1.0" encoding="UTF-8"?>
<svg xmlns:xlink="http://www.w3.org/1999/xlink" id="a" xmlns="http://www.w3.org/2000/svg" viewBox="0 0 460.12 371.22">
    <defs>
        <style>
            .d,.e,.f{fill:none;}.g{stroke-miterlimit:10;stroke-width:1.12px;}.g,.h{fill:#f8fdfa;}.g,.f{stroke:#f8fdfa;}.i{fill:#006350;}.j{fill:#e63946;}.k{fill:#fff;}.l{fill:#00a687;}.m{fill:#ab1127;}.n{fill:#1e1c3b;}.o{fill:#09081700;}.p{fill:#516cb8;}.e{stroke:#e63946;stroke-width:5.69px;}.e,.f{stroke-linecap:round;stroke-linejoin:round;}.q{clip-path:url(#c);}.f{stroke-width:8.53px;}
        </style>
        <clipPath id="c">
            <path class="d"
                  d="M268.1,280.73c0,2.36-1.91,4.27-4.27,4.27h-74.6c-5.93,0-10.76-4.83-10.76-10.76v-89.02h0c0-.59-.23-1.15-.65-1.57s-.98-.65-1.57-.65H81.17c-2.36,0-4.27-1.91-4.27-4.27s1.91-4.27,4.27-4.27h95.08c2.87,0,5.57,1.12,7.61,3.15,2.03,2.03,3.15,4.73,3.15,7.61h0v89.02c0,1.23,1,2.22,2.22,2.22h74.6c2.36,0,4.27,1.91,4.27,4.27Z"/>
        </clipPath>
    </defs>
    <circle class="o" cx="220.44" cy="185.61" r="185.61"/>
    <g>
        <g id="b">
            <g>
                <path class="f"
                      d="M263.83,280.73h-74.6c-3.58,0-6.49-2.91-6.49-6.49h0v-89.02c0-3.58-2.91-6.49-6.49-6.49H81.17"/>
                <g class="q">
                    <g>
                        <line class="e" x1="74.67" y1="171.55" x2="209.56" y2="306.44"/>
                        <line class="e" x1="83.68" y1="162.52" x2="218.6" y2="297.4"/>
                        <line class="e" x1="92.71" y1="153.48" x2="227.63" y2="288.37"/>
                        <line class="e" x1="101.75" y1="144.45" x2="236.63" y2="279.34"/>
                        <line class="e" x1="110.78" y1="135.42" x2="245.67" y2="270.3"/>
                        <line class="e" x1="119.81" y1="126.38" x2="254.7" y2="261.3"/>
                    </g>
                </g>
            </g>
            <g>
                <path class="i"
                      d="M455.28,289.89l-6.22,8.9c-2.46,3.48-6.44,5.57-10.71,5.6l-250.42-.78h-19.64c-4.4-.14-8.43-2.47-10.74-6.22l-3.33-4.67,43.88-33.67,150.31-8.34,94.7,13.88,12.17,25.3Z"/>
                <path class="l"
                      d="M154.19,292.53c-1.27-2.41-2.22-4.97-2.83-7.62-.34-1.92-.48-3.87-.44-5.82,.02-3.75,1.9-7.24,5.01-9.34h0s-1.8-18.67,1.28-25.36c0,0-.31-.78-.72-2.02-1.62-5.06-.43-10.6,3.11-14.56l8.09-9.15c14-15.81,18.42-23,39.3-26.05,31.56-4.64,93.02-9.71,121.37,2.33,16.63,6.73,32.84,14.45,48.55,23.12,6.34,3.99,12.93,7.57,19.73,10.71,5.25,1.42,10.58,2.52,15.96,3.3,11.11,2.46,18.83,3.42,29.22,7.75,3.44,1.42,6.65,3.34,9.52,5.69,5.87,4.99,9.1,12.41,8.74,20.1l-.59,20.76c-.13,4.01-3.39,7.22-7.41,7.28l-297.91-1.12Z"/>
                <path class="h"
                      d="M180.08,232.03c-4.45-1.77-10.24-3.3-14.63-1.65-2.82,1.14-4.53,4.04-4.17,7.06-.02,.09-.02,.19,0,.28,.49,3.28,3.35,5.67,6.66,5.57l10.71-.25c1.52-.04,2.94-.74,3.89-1.93h0c1.99-2.59,1.51-6.3-1.07-8.29-.42-.33-.89-.59-1.38-.79Z"/>
                <path class="g"
                      d="M450.76,255.22c-1.93-3.61-6.91-9.34-19.79-12.45-1.17-.3-2.35,.4-2.65,1.57-.18,.7,0,1.44,.47,1.98l1.87,2.12c3.05,3.44,6.75,6.24,10.89,8.25,2.04,1.03,4.19,1.82,6.41,2.37,1.39,.32,2.78-.55,3.09-1.94,.15-.64,.04-1.32-.29-1.88Z"/>
                <path class="n"
                      d="M205.66,201.19c8.43-2.77,43.57-3.61,43.57-3.61,3.88-.33,7.36,2.38,8,6.22l3.55,21.78c.64,4.09-2.17,7.93-6.26,8.56-.38,.06-.76,.09-1.15,.09h-33.58c-8.06,0-15.78-6.72-20.32-13.41l-.31-.47c-3.75-6.35-1.64-14.54,4.71-18.28,.58-.34,1.18-.64,1.8-.89Z"/>
                <path class="n"
                      d="M277.02,195.75c33.29,.66,65.61,11.35,92.74,30.65,2.13,1.51,2.63,4.46,1.12,6.59-.9,1.27-2.37,2.02-3.92,1.99l-86.02-.56c-3.81-.03-7.06-2.78-7.72-6.54l-4.01-22.9c-.74-4.3,2.15-8.39,6.45-9.13,.45-.08,.9-.12,1.36-.11Z"/>
                <path class="l"
                      d="M356.56,226.99c.34-3.73-11.76-13.47-20.88-9.65-3.58,1.87-4.61,10.21,4.67,12.07,8.12,1.65,15.87,1.28,16.21-2.43Z"/>
                <path class="h"
                      d="M313.74,246.82h-17.33c-1.43-.02-2.58-1.18-2.58-2.61h0c.02-1.43,1.18-2.58,2.61-2.58h17.3c1.43,0,2.58,1.16,2.58,2.58v.03h0c0,1.43-1.16,2.58-2.58,2.58Z"/>
                <path class="h"
                      d="M248.8,246.6h-17.33c-1.43-.02-2.58-1.18-2.58-2.61h0c0-1.43,1.16-2.58,2.58-2.58h17.33c1.43,.02,2.58,1.18,2.58,2.61h0c-.02,1.42-1.16,2.57-2.58,2.58Z"/>
                <path class="i"
                      d="M241.48,294.09v-.75c.38-17.06-13.15-31.2-30.21-31.57-17.06-.38-31.2,13.15-31.57,30.21-.01,.63,0,1.26,.02,1.89l61.77,.22Z"/>
                <path class="i"
                      d="M424.75,294.87c.02-.25,.02-.5,0-.75,.38-17.06-13.15-31.2-30.22-31.57-17.06-.38-31.2,13.15-31.57,30.22-.01,.63,0,1.26,.02,1.89l61.77,.22Z"/>
                <ellipse class="o" cx="209.81" cy="292.4" rx="26.2" ry="25.11"
                         transform="translate(-5.52 4.04) rotate(-1.09)"/>
                <path class="h"
                      d="M194.12,293.37c-.21,8.68,6.66,15.88,15.34,16.08,8.68,.21,15.88-6.66,16.08-15.34,.21-8.68-6.66-15.88-15.34-16.08-.17,0-.35,0-.52,0-8.49-.1-15.46,6.7-15.56,15.19,0,.05,0,.1,0,.16Z"/>
                <path class="o"
                      d="M202.12,293.22c-.1,4.26,3.27,7.8,7.53,7.9,4.26,.1,7.8-3.27,7.9-7.53,.1-4.26-3.27-7.8-7.53-7.9-.11,0-.23,0-.34,0-4.16-.02-7.54,3.34-7.56,7.5v.03Z"/>
                <ellipse class="o" cx="393.86" cy="293.04" rx="26.2" ry="25.11"
                         transform="translate(-5.5 7.55) rotate(-1.09)"/>
                <path class="h"
                      d="M378.16,293.99c-.22,8.69,6.64,15.92,15.34,16.14,8.69,.22,15.92-6.64,16.14-15.34,.22-8.69-6.64-15.92-15.34-16.14-.19,0-.39,0-.59,0-8.49-.1-15.46,6.7-15.56,15.19,0,.05,0,.1,0,.16Z"/>
                <path class="o"
                      d="M386.34,293.84c-.1,4.24,3.25,7.77,7.5,7.87,4.24,.1,7.77-3.25,7.87-7.5,.1-4.24-3.25-7.77-7.5-7.87-.1,0-.21,0-.31,0-4.15,0-7.53,3.35-7.56,7.5Z"/>
            </g>
        </g>
        <path class="p"
              d="M19.48,128.94h59.49c10.75,0,19.48,8.73,19.48,19.48v155.57H0V148.43c0-10.75,8.73-19.48,19.48-19.48Z"/>
        <g>
            <g>
                <circle class="k" cx="49.23" cy="215.37" r="39.35"/>
                <path class="m"
                      d="M49.23,256.48c-22.67,0-41.11-18.44-41.11-41.11s18.44-41.11,41.11-41.11,41.11,18.44,41.11,41.11-18.44,41.11-41.11,41.11Zm0-78.69c-20.72,0-37.58,16.86-37.58,37.58s16.86,37.58,37.58,37.58,37.58-16.86,37.58-37.58-16.86-37.58-37.58-37.58Z"/>
            </g>
            <path class="j"
                  d="M69.3,210.6c-.12-.24-.37-.39-.63-.39l-16.85-.06,3.98-24.29c.05-.32-.12-.64-.42-.77-.3-.13-.65-.04-.85,.21l-25.3,32.37c-.17,.21-.2,.51-.08,.75,.12,.24,.37,.4,.64,.4h17.52l-4.29,26.07c-.05,.33,.12,.64,.43,.77,.09,.04,.18,.06,.28,.06,.22,0,.44-.1,.57-.29l24.94-34.09c.16-.22,.18-.5,.06-.74Z"/>
            <path class="m"
                  d="M77.56,243.95c-.45,0-.9-.17-1.25-.52l-53.97-53.97c-.69-.69-.69-1.8,0-2.49s1.8-.69,2.49,0l53.97,53.97c.69,.69,.69,1.8,0,2.49-.34,.34-.8,.52-1.25,.52Z"/>
        </g>
    </g>
</svg>
