<?xml version="1.0" encoding="utf-8"?>
<!-- Generator: Adobe Illustrator 26.5.0, SVG Export Plug-In . SVG Version: 6.00 Build 0)  -->
<svg version="1.1" id="Calque_1" xmlns="http://www.w3.org/2000/svg" xmlns:xlink="http://www.w3.org/1999/xlink" x="0px" y="0px"
	 viewBox="0 0 72.81 72" style="enable-background:new 0 0 72.81 72;" xml:space="preserve">
<style type="text/css">
	.st0{fill-rule:evenodd;clip-rule:evenodd;fill:#09081700;}

		.st1{fill-rule:evenodd;clip-rule:evenodd;fill:#516CB8;stroke:#516CB8;stroke-width:1.6364;stroke-linecap:round;stroke-linejoin:round;stroke-miterlimit:10;}
	.st2{fill-rule:evenodd;clip-rule:evenodd;fill:#FFFFFF;}
	.st3{clip-path:url(#SVGID_00000062171939778404285060000014623972659552327333_);}
	.st4{fill:#2F3F6B;}
	.st5{fill-rule:evenodd;clip-rule:evenodd;fill:none;stroke:#2F3F6B;stroke-width:1.8187;stroke-miterlimit:10;}
	.st6{fill-rule:evenodd;clip-rule:evenodd;fill:#2F3F6B;}
	.st7{fill:#090817;}

		.st8{clip-path:url(#SVGID_00000062171939778404285060000014623972659552327333_);fill-rule:evenodd;clip-rule:evenodd;fill:#516CB8;stroke:#516CB8;stroke-width:1.6364;stroke-linecap:round;stroke-linejoin:round;stroke-miterlimit:10;}
	.st9{fill:#FFFFFF;}
	.st10{fill:none;stroke:#FFFFFF;stroke-width:0.6062;stroke-miterlimit:10;}
	.st11{fill:#516CB8;}
	.st12{fill-rule:evenodd;clip-rule:evenodd;fill:none;stroke:#2F3F6B;stroke-width:1.6364;stroke-miterlimit:10;}
	.st13{fill:#AB1127;}
	.st14{fill:#E63946;}
</style>
<g>
	<g>
		<circle class="st0" cx="36" cy="36" r="36"/>
	</g>
	<g>
		<rect x="44.01" y="10.2" class="st1" width="27.98" height="45.35"/>
		<rect x="46.19" y="13.74" class="st2" width="23.62" height="38.28"/>
	</g>
	<g>
		<defs>
			<circle id="SVGID_1_" cx="36" cy="36" r="36"/>
		</defs>
		<clipPath id="SVGID_00000022546105427994215960000007184436605444773257_">
			<use xlink:href="#SVGID_1_"  style="overflow:visible;"/>
		</clipPath>
		<g style="clip-path:url(#SVGID_00000022546105427994215960000007184436605444773257_);">
			<g>
				<path class="st4" d="M30.58,71.55L10.47,45.27l1.78-1.23l21.3,27.95l-2.14-0.02C31.08,71.96,30.78,71.81,30.58,71.55z"/>
			</g>
			<line class="st5" x1="-2.04" y1="44.94" x2="12.24" y2="44.94"/>
			<polygon class="st6" points="13.32,44.03 21.24,44.03 52.61,74.33 37.01,75 			"/>
			<g>
				<g>
					<polygon class="st4" points="19.77,71.95 2.55,45.27 3.44,44.03 21.54,71.98 					"/>
				</g>
				<rect x="4.12" y="50.58" class="st7" width="8.53" height="2.18"/>
				<rect x="11.44" y="61.34" class="st7" width="8.53" height="2.18"/>
			</g>
		</g>

			<rect x="55.53" y="54.91" style="clip-path:url(#SVGID_00000022546105427994215960000007184436605444773257_);fill-rule:evenodd;clip-rule:evenodd;fill:#516CB8;stroke:#516CB8;stroke-width:1.6364;stroke-linecap:round;stroke-linejoin:round;stroke-miterlimit:10;" width="4.92" height="14.14"/>
		<g style="clip-path:url(#SVGID_00000022546105427994215960000007184436605444773257_);">
			<rect x="31.77" y="50.26" class="st9" width="2.46" height="11.75"/>
			<rect x="32.01" y="26.83" class="st9" width="1.97" height="23.45"/>
			<path class="st10" d="M23.66,16.84c0,0,9.32,1.52,9.32,10.25"/>
			<g>
				<path class="st9" d="M16.53,16.18c0,0,0.45-2.07,2.75-1.56s4.7,1.19,4.77,2.51L16.53,16.18z"/>
				<path class="st11" d="M17.23,16.14c0,0,0.14,1.13,1.97,1.48c1.83,0.35,2.65-0.9,2.65-0.9L17.23,16.14z"/>
			</g>
			<rect x="30.11" y="61.57" class="st9" width="5.79" height="0.82"/>
		</g>
	</g>
	<path class="st12" d="M38.92,65.52"/>
	<g>
		<g>
			<circle class="st9" cx="42.96" cy="38.85" r="10.28"/>
			<path class="st13" d="M42.96,49.6c-5.92,0-10.74-4.82-10.74-10.74s4.82-10.74,10.74-10.74c5.92,0,10.74,4.82,10.74,10.74
				S48.88,49.6,42.96,49.6z M42.96,29.03c-5.42,0-9.82,4.41-9.82,9.82s4.41,9.82,9.82,9.82s9.82-4.41,9.82-9.82
				S48.37,29.03,42.96,29.03z"/>
		</g>
		<g>
			<path class="st14" d="M48.2,37.61c-0.03-0.06-0.1-0.1-0.17-0.1l-4.4-0.02l1.04-6.35c0.01-0.08-0.03-0.17-0.11-0.2
				c-0.08-0.03-0.17-0.01-0.22,0.06l-6.61,8.46c-0.04,0.06-0.05,0.13-0.02,0.2c0.03,0.06,0.1,0.1,0.17,0.1h4.58l-1.12,6.81
				c-0.01,0.09,0.03,0.17,0.11,0.2c0.02,0.01,0.05,0.01,0.07,0.01c0.06,0,0.11-0.03,0.15-0.08l6.52-8.91
				C48.23,37.74,48.24,37.67,48.2,37.61z"/>
		</g>
		<g>
			<path class="st13" d="M50.36,46.32c-0.12,0-0.24-0.04-0.33-0.13L35.93,32.08c-0.18-0.18-0.18-0.47,0-0.65
				c0.18-0.18,0.47-0.18,0.65,0l14.11,14.11c0.18,0.18,0.18,0.47,0,0.65C50.6,46.28,50.48,46.32,50.36,46.32z"/>
		</g>
	</g>
</g>
</svg>
