<svg xmlns="http://www.w3.org/2000/svg" xmlns:xlink="http://www.w3.org/1999/xlink" viewBox="0 0 250 250"><defs><style>.cls-1,.cls-10,.cls-12,.cls-3,.cls-5,.cls-8{fill:none;}.cls-2{fill:#1e1c3b;}.cls-3,.cls-5{stroke:#516cb8;}.cls-10,.cls-12,.cls-3,.cls-5,.cls-8{stroke-linecap:round;stroke-linejoin:round;}.cls-3{stroke-width:3.97px;}.cls-4{fill:#fcfcfc;}.cls-5{stroke-width:3.93px;}.cls-6{clip-path:url(#clip-path);}.cls-7{fill:#2f3f6b;}.cls-12,.cls-8{stroke:#fff;}.cls-8{stroke-width:23.97px;}.cls-9{fill:#fff;}.cls-10{stroke:#e0e5ed;stroke-width:7.99px;}.cls-11{fill:#e63946;}.cls-12{stroke-width:2px;}</style><clipPath id="clip-path"><path class="cls-1" d="M210.39,86.9h-5.46V78.06a1.87,1.87,0,0,0-1.87-1.87H48.12a1.87,1.87,0,0,0-1.88,1.87V173.3a1.88,1.88,0,0,0,1.88,1.87H203.06a1.87,1.87,0,0,0,1.87-1.87v-63h5.46a1.87,1.87,0,0,0,1.87-1.87V88.77A1.87,1.87,0,0,0,210.39,86.9Z"/></clipPath></defs><g id="_4-ecogeste-chauffage" data-name="4-ecogeste-chauffage"><g id="_4-ecogeste-chauffage-2" data-name="4-ecogeste-chauffage"><circle class="cls-2" cx="125" cy="125" r="115"/><line class="cls-3" x1="56.2" y1="86.93" x2="194.98" y2="86.93"/><line class="cls-3" x1="56.2" y1="101.86" x2="194.98" y2="101.86"/><line class="cls-3" x1="56.2" y1="116.79" x2="194.98" y2="116.79"/><path class="cls-4" d="M210.39,86.9h-5.46V78.06a1.87,1.87,0,0,0-1.87-1.87H48.12a1.87,1.87,0,0,0-1.88,1.87V173.3a1.88,1.88,0,0,0,1.88,1.87H203.06a1.87,1.87,0,0,0,1.87-1.87v-63h5.46a1.87,1.87,0,0,0,1.87-1.87V88.77A1.87,1.87,0,0,0,210.39,86.9Z"/><line class="cls-5" x1="63.35" y1="91.96" x2="189.31" y2="91.96"/><line class="cls-5" x1="63.35" y1="105.51" x2="189.31" y2="105.51"/><line class="cls-5" x1="63.35" y1="119.06" x2="189.31" y2="119.06"/><g class="cls-6"><path class="cls-7" d="M83.91,79.72V32.53a11.24,11.24,0,1,0-22.48,0V79.72a24.56,24.56,0,1,0,22.48,0Z"/></g><line class="cls-8" x1="68.01" y1="31.04" x2="68.01" y2="100.06"/><circle class="cls-9" cx="68.01" cy="100.06" r="24.56"/><line class="cls-10" x1="68.01" y1="32.96" x2="68.01" y2="100.06"/><path class="cls-11" d="M72,84.12V63.39a4,4,0,0,0-8,0V84.12a16.45,16.45,0,1,0,8,0Z"/><path class="cls-12" d="M117.69,64.4a6.7,6.7,0,0,1,0-9.48h0a6.71,6.71,0,0,0,0-9.49h0a6.7,6.7,0,0,1,0-9.48"/><path class="cls-12" d="M152.62,78.63a6.71,6.71,0,0,1,0-9.49h0a6.7,6.7,0,0,0,0-9.48h0a6.71,6.71,0,0,1,0-9.49"/><path class="cls-12" d="M136.45,51a4.79,4.79,0,0,1,0-6.79h0a4.81,4.81,0,0,0,0-6.79h0a4.79,4.79,0,0,1,0-6.79"/></g></g></svg>