<?xml version="1.0" encoding="utf-8"?>
<!-- Generator: Adobe Illustrator 26.5.0, SVG Export Plug-In . SVG Version: 6.00 Build 0)  -->
<svg version="1.1" id="Calque_1" xmlns="http://www.w3.org/2000/svg" xmlns:xlink="http://www.w3.org/1999/xlink" x="0px" y="0px"
	 viewBox="0 0 375.62 375.62" style="enable-background:new 0 0 375.62 375.62;" xml:space="preserve">
<style type="text/css">
	.st0{fill-rule:evenodd;clip-rule:evenodd;fill:#09081700;}
	.st1{fill:#FFFFFF;}
	.st2{fill:#516CB8;}
	.st3{fill:none;stroke:#FFFFFF;stroke-width:4;stroke-linecap:round;stroke-linejoin:round;stroke-miterlimit:10;}
	.st4{fill:none;stroke:#FFFFFF;stroke-width:3.0443;stroke-linecap:round;stroke-linejoin:round;stroke-miterlimit:10;}
</style>
<g>
	<g>
		<circle class="st0" cx="187.81" cy="187.81" r="187.81"/>
	</g>
</g>
<g>
	<g>
		<g>
			<path class="st1" d="M187.81,63.37c34.04,0,61.63,27.59,61.63,61.63s-27.59,61.63-61.63,61.63V63.37z"/>
			<path class="st1" d="M64.55,186.64c0-34.04,27.59-61.63,61.63-61.63s61.63,27.59,61.63,61.63H64.55z"/>
			<path class="st1" d="M187.81,309.9c-34.04,0-61.63-27.59-61.63-61.63s27.59-61.63,61.63-61.63V309.9z"/>
			<path class="st1" d="M311.07,186.64c0,34.04-27.59,61.63-61.63,61.63s-61.63-27.59-61.63-61.63H311.07z"/>
		</g>
		<circle class="st2" cx="187.81" cy="186.64" r="23.74"/>
	</g>
	<g>
		<path class="st3" d="M144.92,87.77c8.5-5.34,17.84-9.58,27.84-12.46"/>
		<path class="st4" d="M144.06,101.74c6.56-4.59,13.83-8.27,21.63-10.84"/>
	</g>
	<g>
		<path class="st3" d="M232.37,284.1c-9.32,6.07-19.64,10.77-30.7,13.79"/>
		<path class="st4" d="M235.58,262.65c-7.92,7.51-17.33,13.5-27.8,17.46"/>
	</g>
</g>
</svg>
